<svg xmlns="http://www.w3.org/2000/svg" width="450" height="433.3" viewBox="0 0 450 433.3"><rect width="450" height="365.73" fill="#ff2f00"/><path d="M237.5,68.3q31.2,31.4,31.2,89.9V267.3H230.2V235.2H74.7v93.6H36.9V158.2q0-58.5,31.2-89.9t84.3-31.4C188.4,36.9,216.7,47.4,237.5,68.3Zm-7.3,133.4V154.8q0-41.3-20.6-62.4T152.4,71.2c-24.3,0-43.4,7.1-57.1,21.2s-20.6,34.9-20.6,62.4v46.9Z" fill="#fff"/><path d="M414.3,314.5a53.1,53.1,0,0,1-20,10.6,81.5,81.5,0,0,1-24.6,3.7q-30.9,0-47.8-16.6T305,264.9V71.2h37v51.2h58.5v30.4H342V263.3c0,11.1,2.7,19.5,8.2,25.4s13.4,8.9,23.7,8.9,20.9-3.2,28.9-9.6Z" fill="#fff"/><circle cx="249.5" cy="309.5" r="19.3" fill="#fff"/><path d="M26.3,385a15.3,15.3,0,0,1,6,6.1,20.5,20.5,0,0,1,2.1,9.7v21.4H27.2v-9.9H7.1v9.9H0V400.8a20.5,20.5,0,0,1,2.1-9.7,14.1,14.1,0,0,1,6-6.1,20,20,0,0,1,9.1-2A20,20,0,0,1,26.3,385Zm.9,21.2v-6.1q0-5.4-2.7-8.1c-1.7-1.8-4.2-2.7-7.4-2.7A10.1,10.1,0,0,0,9.7,392c-1.7,1.8-2.6,4.5-2.6,8.1v6.1Z"/><path d="M65.9,422.2,58,410.9H47.8v11.3H40.6V383.5H56.5a21.9,21.9,0,0,1,8.8,1.7,13.3,13.3,0,0,1,5.7,4.7,13.9,13.9,0,0,1,2,7.4,12.5,12.5,0,0,1-2.2,7.5,12.2,12.2,0,0,1-6.1,4.7l8.9,12.7Zm-2.6-30.6c-1.6-1.3-4-2-7.1-2H47.8V405h8.4c3.1,0,5.5-.6,7.1-2a8,8,0,0,0,0-11.4Z"/><path d="M84.6,420.2a18.7,18.7,0,0,1-7.4-7.1,19.4,19.4,0,0,1-2.7-10.2,19.3,19.3,0,0,1,10.1-17.4,24,24,0,0,1,19.3-.9,17.6,17.6,0,0,1,6.6,4.8l-4.6,4.4a13.5,13.5,0,0,0-10.3-4.5,15.3,15.3,0,0,0-7.2,1.7,12.8,12.8,0,0,0-4.9,4.9,13.5,13.5,0,0,0-1.8,7,13.8,13.8,0,0,0,1.8,7,11.9,11.9,0,0,0,4.9,4.8,14.3,14.3,0,0,0,7.2,1.8,13.6,13.6,0,0,0,10.3-4.6l4.6,4.4a17.6,17.6,0,0,1-6.6,4.8,22.9,22.9,0,0,1-8.7,1.7A21.9,21.9,0,0,1,84.6,420.2Z"/><path d="M146.6,383.5v38.7h-6.9v-4.9c-2.6,3.7-6.7,5.5-12.2,5.5s-8.1-1.4-10.8-4.3-3.9-6.9-3.9-12.1V383.5H120v22.6c0,3.4.8,6,2.5,7.8a8.9,8.9,0,0,0,6.7,2.6,10.1,10.1,0,0,0,7.4-2.8c1.9-1.9,2.8-4.6,2.8-8.3V383.5Z"/><path d="M152.8,421.3a4.2,4.2,0,0,1-1.3-3.3,4.5,4.5,0,1,1,9,0,4.2,4.2,0,0,1-1.3,3.3,4.2,4.2,0,0,1-3.2,1.3A4.4,4.4,0,0,1,152.8,421.3Z"/><path d="M180.3,420.6a7.3,7.3,0,0,1-2.9,1.5,11.4,11.4,0,0,1-3.7.5c-3.3,0-5.8-.8-7.5-2.5s-2.7-4.2-2.7-7.4V386.2h6.9v6.7h7.9v5.6h-7.9v14a4.9,4.9,0,0,0,1.1,3.3,4.1,4.1,0,0,0,3,1.1,6.1,6.1,0,0,0,3.9-1.2Z"/><path d="M203.3,413.5l3.6,4.3a11.2,11.2,0,0,1-4.9,3.6,18.8,18.8,0,0,1-6.9,1.2,18.4,18.4,0,0,1-8.6-1.9,14.8,14.8,0,0,1-5.7-5.4,16.2,16.2,0,0,1,0-15.6,14,14,0,0,1,5.4-5.4,15.5,15.5,0,0,1,7.8-1.9,16.1,16.1,0,0,1,7.6,1.8,13.7,13.7,0,0,1,5.3,5.1,14.2,14.2,0,0,1,2,7.8l-22.6,4.5a7.4,7.4,0,0,0,3.4,3.8,10.8,10.8,0,0,0,5.6,1.4A10.6,10.6,0,0,0,203.3,413.5Zm-15.5-13.1a9.5,9.5,0,0,0-2.3,6.7h0l16.7-3.2a8.1,8.1,0,0,0-2.9-4.3,8.6,8.6,0,0,0-5.3-1.7A8.1,8.1,0,0,0,187.8,400.4Z"/><path d="M217.5,420.7a13.5,13.5,0,0,1-5.7-5.4,15.5,15.5,0,0,1,0-15.6,13.9,13.9,0,0,1,5.6-5.4,17.5,17.5,0,0,1,8.3-1.9,17.1,17.1,0,0,1,7.7,1.7,11.5,11.5,0,0,1,4.9,5.1l-5.3,3.1a7.7,7.7,0,0,0-3.2-3,8.1,8.1,0,0,0-4.1-1.1,8.6,8.6,0,0,0-9,9.3,9,9,0,0,0,2.5,6.7,8.7,8.7,0,0,0,6.5,2.5,8,8,0,0,0,4.1-1,7.9,7.9,0,0,0,3.2-3.1l5.3,3.1a11.7,11.7,0,0,1-5,5.1,15.5,15.5,0,0,1-7.6,1.8A17.1,17.1,0,0,1,217.5,420.7Z"/><path d="M266.2,395.6c2.2,2.2,3.4,5.4,3.4,9.7v16.9h-6.9v-16c0-2.6-.6-4.5-1.9-5.8a6.7,6.7,0,0,0-5.2-2,8.1,8.1,0,0,0-6,2.3c-1.5,1.5-2.2,3.7-2.2,6.6v14.9h-6.9v-41h6.9v14.9a12.4,12.4,0,0,1,4.2-2.8,16.9,16.9,0,0,1,5.6-.9A12.5,12.5,0,0,1,266.2,395.6Z"/><path d="M300,395.6c2.2,2.2,3.4,5.4,3.4,9.7v16.9h-6.9v-16a8.2,8.2,0,0,0-1.9-5.8,6.7,6.7,0,0,0-5.2-2,8.1,8.1,0,0,0-6,2.3c-1.5,1.5-2.2,3.7-2.2,6.6v14.9h-6.9V392.7h6.6v3.8a10.6,10.6,0,0,1,4.3-3.1,15.4,15.4,0,0,1,5.8-1A12.7,12.7,0,0,1,300,395.6Z"/><path d="M313.6,420.7a13.9,13.9,0,0,1-5.6-5.4,16.2,16.2,0,0,1,0-15.6,13.9,13.9,0,0,1,5.6-5.4,18.2,18.2,0,0,1,16.2,0,13.9,13.9,0,0,1,5.6,5.4,16.2,16.2,0,0,1,0,15.6,13.9,13.9,0,0,1-5.6,5.4,18.2,18.2,0,0,1-16.2,0Zm14.4-6.5a9.6,9.6,0,0,0,2.5-6.7,9.4,9.4,0,0,0-2.5-6.7,8.6,8.6,0,0,0-6.3-2.6,8.4,8.4,0,0,0-6.3,2.6,9.3,9.3,0,0,0-2.4,6.7,9.5,9.5,0,0,0,2.4,6.7,8.4,8.4,0,0,0,6.3,2.5A8.5,8.5,0,0,0,328,414.2Z"/><path d="M342.8,420.1c-1.8-1.7-2.6-4-2.6-7.1V381.2h6.9v31.3c0,2.9,1.4,4.4,4.2,4.4a6,6,0,0,0,2.4-.5l.4,5.5a11.6,11.6,0,0,1-4.2.7C346.9,422.6,344.5,421.8,342.8,420.1Z"/><path d="M360.3,420.7a13.9,13.9,0,0,1-5.6-5.4,16.2,16.2,0,0,1,0-15.6,13.9,13.9,0,0,1,5.6-5.4,18.2,18.2,0,0,1,16.2,0,13.9,13.9,0,0,1,5.6,5.4,16.2,16.2,0,0,1,0,15.6,13.9,13.9,0,0,1-5.6,5.4,18.2,18.2,0,0,1-16.2,0Zm14.4-6.5a9.6,9.6,0,0,0,2.5-6.7,9.4,9.4,0,0,0-2.5-6.7,8.6,8.6,0,0,0-6.3-2.6,8.3,8.3,0,0,0-6.3,2.6,9.4,9.4,0,0,0-2.5,6.7,9.6,9.6,0,0,0,2.5,6.7,8.2,8.2,0,0,0,6.3,2.5A8.5,8.5,0,0,0,374.7,414.2Z"/><path d="M416.7,392.7v25q0,15.6-15.9,15.6a30,30,0,0,1-8.1-1,18.7,18.7,0,0,1-6.3-3.2l3.1-5.2a13.4,13.4,0,0,0,4.9,2.6,18,18,0,0,0,6,1c3.2,0,5.6-.8,7.1-2.2s2.3-3.8,2.3-6.8V417a11.7,11.7,0,0,1-4.3,2.9,14.7,14.7,0,0,1-5.6,1,16.1,16.1,0,0,1-7.6-1.8,13.3,13.3,0,0,1-5.4-5.1,13.8,13.8,0,0,1-1.9-7.4,14.4,14.4,0,0,1,1.9-7.5,13.7,13.7,0,0,1,5.4-5,17.3,17.3,0,0,1,7.6-1.7,15.4,15.4,0,0,1,5.8,1,10.9,10.9,0,0,1,4.4,3.2v-3.9Zm-9.3,20a7.9,7.9,0,0,0,2.5-6.1,7.6,7.6,0,0,0-2.5-6,9,9,0,0,0-6.5-2.4,9.2,9.2,0,0,0-6.5,2.4,7.9,7.9,0,0,0-2.5,6,8.3,8.3,0,0,0,2.5,6.1,9.1,9.1,0,0,0,6.5,2.3A8.9,8.9,0,0,0,407.4,412.7Z"/><path d="M450,392.7v25q0,15.6-15.3,15.6a27.6,27.6,0,0,1-7.7-1,16.8,16.8,0,0,1-6.1-3.2l3.1-5.2a13.8,13.8,0,0,0,4.6,2.6,17.9,17.9,0,0,0,5.7.9c3,0,5.2-.7,6.7-2.2s2.1-3.7,2.1-6.7v-1.4a10,10,0,0,1-4,2.8,12.7,12.7,0,0,1-5.2,1q-5.8,0-9.3-3.3c-2.3-2.1-3.4-5.4-3.4-9.7V392.7h6.9V407a8.7,8.7,0,0,0,1.8,5.9,6.6,6.6,0,0,0,5.1,1.9,7.8,7.8,0,0,0,5.9-2.2,9.2,9.2,0,0,0,2.2-6.6V392.7Z"/></svg>