<svg xmlns="http://www.w3.org/2000/svg" width="90" height="73.1" viewBox="0 0 90 73.1"><rect width="90" height="73.15" fill="#ff2f00"/><path d="M47.5,13.7c4.2,4.1,6.2,10.1,6.2,17.9V52.2H46V47H14.9V65.8H7.4V31.6c0-7.8,2.1-13.8,6.2-17.9s9.8-6.3,16.9-6.3S43.3,9.5,47.5,13.7ZM46,40.3V31c0-5.5-1.3-9.7-4.1-12.5s-6.5-4.3-11.4-4.3-8.7,1.5-11.4,4.3-4.2,7-4.2,12.5v9.3Z" fill="#fff"/><path d="M82.9,62.9a11.7,11.7,0,0,1-4,2.1,16.9,16.9,0,0,1-5,.8c-4.1,0-7.3-1.1-9.5-3.4S61,57.1,61,53V14.2h7.4V24.5H80.1v6.1H68.4V52.7c0,2.2.5,3.9,1.6,5a6.3,6.3,0,0,0,4.8,1.8,9,9,0,0,0,5.8-1.9Z" fill="#fff"/><circle cx="49.9" cy="61.9" r="3.9" fill="#fff"/></svg>