<svg xmlns="http://www.w3.org/2000/svg" width="306.7" height="81.3" viewBox="0 0 306.7 81.3"><rect width="100" height="81.27" fill="#ff2f00"/><path d="M52.8,15.2c4.6,4.6,6.9,11.3,6.9,20V58.1H51.2V52.3H16.6V73.1H8.2V35.2c0-8.7,2.3-15.4,6.9-20s10.9-7,18.8-7S48.2,10.5,52.8,15.2ZM51.2,44.8V34.4c0-6.1-1.6-10.7-4.6-13.9s-7.3-4.7-12.7-4.7-9.7,1.6-12.7,4.7-4.6,7.8-4.6,13.9V44.8Z" fill="#fff"/><path d="M92.1,69.9a12,12,0,0,1-4.5,2.3,16.5,16.5,0,0,1-5.4.9c-4.6,0-8.1-1.3-10.7-3.7s-3.7-6-3.7-10.5V15.8H76V27.2H89V34H76V58.5a8.1,8.1,0,0,0,1.8,5.7,7,7,0,0,0,5.3,1.9A10.1,10.1,0,0,0,89.5,64Z" fill="#fff"/><circle cx="55.4" cy="68.8" r="4.3" fill="#fff"/><path d="M119.7,8.9a6.2,6.2,0,0,1,2.6,2.7,9.1,9.1,0,0,1,.9,4.3v9.4h-3.1V20.9h-8.9v4.4h-3.1V15.9a9.1,9.1,0,0,1,.9-4.3,5.9,5.9,0,0,1,2.7-2.7,8.2,8.2,0,0,1,4-.9A8.7,8.7,0,0,1,119.7,8.9Zm.4,9.4V15.6a4.9,4.9,0,0,0-1.2-3.6,4.5,4.5,0,0,0-3.3-1.2,4.1,4.1,0,0,0-3.2,1.2,4.9,4.9,0,0,0-1.2,3.6v2.7Z"/><path d="M137.2,25.3l-3.5-5h-4.6v5H126V8.2h7a9.3,9.3,0,0,1,3.9.8,5.8,5.8,0,0,1,2.5,2.1,5.7,5.7,0,0,1,.9,3.2,5.2,5.2,0,0,1-1,3.3,4.8,4.8,0,0,1-2.7,2.1l4,5.6ZM136,11.8a4.8,4.8,0,0,0-3.1-.9h-3.8v6.8h3.8a4.8,4.8,0,0,0,3.1-.9,3.1,3.1,0,0,0,1.1-2.5A3.1,3.1,0,0,0,136,11.8Z"/><path d="M145.4,24.4a8.2,8.2,0,0,1-3.3-3.1,8.4,8.4,0,0,1-1.1-4.5,8.4,8.4,0,0,1,1.1-4.5,8.5,8.5,0,0,1,3.3-3.2A10.5,10.5,0,0,1,150.1,8a9.2,9.2,0,0,1,3.8.7,8.1,8.1,0,0,1,3,2.1l-2.1,2a5.7,5.7,0,0,0-4.6-2,6.4,6.4,0,0,0-3.1.7,6.6,6.6,0,0,0-2.2,2.2,6.2,6.2,0,0,0-.8,3.1,6.5,6.5,0,0,0,.8,3.1,5.6,5.6,0,0,0,2.2,2.1,6.5,6.5,0,0,0,3.1.8,6,6,0,0,0,4.6-2l2.1,1.9a8.1,8.1,0,0,1-3,2.1,9.2,9.2,0,0,1-3.8.8A9.4,9.4,0,0,1,145.4,24.4Z"/><path d="M172.8,8.2V25.3h-3.1V23.1c-1.1,1.7-2.9,2.5-5.3,2.5a6.4,6.4,0,0,1-4.8-1.9,7.6,7.6,0,0,1-1.7-5.4V8.2H161v10a4.8,4.8,0,0,0,1.1,3.4,3.8,3.8,0,0,0,3,1.2,4.5,4.5,0,0,0,3.3-1.2,5.3,5.3,0,0,0,1.2-3.7V8.2Z"/><path d="M175.5,24.9a1.8,1.8,0,0,1-.6-1.4,2,2,0,0,1,.6-1.5,2,2,0,0,1,1.4-.6,2,2,0,0,1,1.5.6,2.5,2.5,0,0,1,.5,1.5,2.2,2.2,0,0,1-.5,1.4,2,2,0,0,1-1.5.6A2,2,0,0,1,175.5,24.9Z"/><path d="M187.7,24.6l-1.3.7-1.7.2a4.9,4.9,0,0,1-3.3-1.1,4.5,4.5,0,0,1-1.2-3.3V9.4h3.1v3h3.5v2.4h-3.5V21a2.3,2.3,0,0,0,.5,1.5,1.7,1.7,0,0,0,1.3.5,2.4,2.4,0,0,0,1.7-.6Z"/><path d="M197.8,21.5l1.6,1.9a6,6,0,0,1-2.2,1.6,9.4,9.4,0,0,1-3,.5,7.9,7.9,0,0,1-3.8-.9,5.6,5.6,0,0,1-2.5-2.3,7,7,0,0,1-.9-3.5,6.4,6.4,0,0,1,.9-3.4,5.6,5.6,0,0,1,2.4-2.4,6.4,6.4,0,0,1,3.4-.9,7.3,7.3,0,0,1,3.3.8,6.6,6.6,0,0,1,2.4,2.3,6.5,6.5,0,0,1,.9,3.5l-10,1.9a3.1,3.1,0,0,0,1.5,1.7,5.2,5.2,0,0,0,6-.8ZM191,15.7a4,4,0,0,0-1.1,2.9h0l7.4-1.5a3.1,3.1,0,0,0-1.3-1.9,3.5,3.5,0,0,0-2.3-.7A3.3,3.3,0,0,0,191,15.7Z"/><path d="M204.1,24.6a5.6,5.6,0,0,1-2.5-2.3,7,7,0,0,1-.9-3.5,6.5,6.5,0,0,1,3.4-5.8,6.9,6.9,0,0,1,3.6-.9,7.4,7.4,0,0,1,3.4.8,4.9,4.9,0,0,1,2.2,2.3l-2.4,1.3a2.9,2.9,0,0,0-1.4-1.3,3.7,3.7,0,0,0-1.8-.5,4.2,4.2,0,0,0-2.9,1.1,4.6,4.6,0,0,0,0,6,4.2,4.2,0,0,0,2.9,1.1,3.7,3.7,0,0,0,1.8-.5,2.9,2.9,0,0,0,1.4-1.3l2.4,1.3a5.4,5.4,0,0,1-2.2,2.3,7.4,7.4,0,0,1-3.4.8A7.1,7.1,0,0,1,204.1,24.6Z"/><path d="M225.6,13.6a5.6,5.6,0,0,1,1.5,4.3v7.4H224V18.2a3.6,3.6,0,0,0-.8-2.5,2.9,2.9,0,0,0-2.3-.9,3.3,3.3,0,0,0-2.6,1,3.9,3.9,0,0,0-1,2.9v6.6h-3.1V7.2h3.1v6.6a5.7,5.7,0,0,1,1.8-1.2,7,7,0,0,1,2.5-.5A5.4,5.4,0,0,1,225.6,13.6Z"/><path d="M240.5,13.6a5.6,5.6,0,0,1,1.5,4.3v7.4h-3.1V18.2a3.2,3.2,0,0,0-.8-2.5,2.9,2.9,0,0,0-2.3-.9,3.3,3.3,0,0,0-2.6,1,3.9,3.9,0,0,0-1,2.9v6.6h-3.1v-13h3V14a4.5,4.5,0,0,1,1.9-1.4,6.6,6.6,0,0,1,2.5-.5A5.4,5.4,0,0,1,240.5,13.6Z"/><path d="M246.5,24.6a6.1,6.1,0,0,1-2.5-2.3,7,7,0,0,1-.9-3.5,6.4,6.4,0,0,1,.9-3.4,7.2,7.2,0,0,1,2.5-2.4,7.6,7.6,0,0,1,7.2,0,6.9,6.9,0,0,1,2.4,2.4,6.4,6.4,0,0,1,.9,3.4,7,7,0,0,1-.9,3.5,5.9,5.9,0,0,1-2.4,2.3,7.6,7.6,0,0,1-7.2,0Zm6.4-2.8a4.4,4.4,0,0,0,1.1-3,4,4,0,0,0-1.1-2.9,3.8,3.8,0,0,0-2.8-1.2,3.6,3.6,0,0,0-2.8,1.2,4,4,0,0,0-1.1,2.9,4.4,4.4,0,0,0,1.1,3,3.9,3.9,0,0,0,2.8,1.1A4.1,4.1,0,0,0,252.9,21.8Z"/><path d="M259.4,24.4a4.2,4.2,0,0,1-1.2-3.2V7.2h3.1V21c0,1.3.6,2,1.8,2a2,2,0,0,0,1.1-.3l.2,2.5a5.8,5.8,0,0,1-1.9.3A4.3,4.3,0,0,1,259.4,24.4Z"/><path d="M267.1,24.6a6.1,6.1,0,0,1-2.5-2.3,6.9,6.9,0,0,1-.8-3.5,6.3,6.3,0,0,1,.8-3.4,7.2,7.2,0,0,1,2.5-2.4,7.7,7.7,0,0,1,7.2,0,7.2,7.2,0,0,1,2.5,2.4,7.4,7.4,0,0,1,.8,3.4,8.2,8.2,0,0,1-.8,3.5,6.1,6.1,0,0,1-2.5,2.3,7.7,7.7,0,0,1-7.2,0Zm6.4-2.8a4.4,4.4,0,0,0,1.1-3,4,4,0,0,0-1.1-2.9,3.8,3.8,0,0,0-2.8-1.2,3.6,3.6,0,0,0-2.8,1.2,4,4,0,0,0-1.1,2.9,4.4,4.4,0,0,0,1.1,3,3.9,3.9,0,0,0,2.8,1.1A4.1,4.1,0,0,0,273.5,21.8Z"/><path d="M292,12.3v11c0,4.6-2.3,6.9-7,6.9a13.7,13.7,0,0,1-3.6-.4,10.5,10.5,0,0,1-2.8-1.4l1.4-2.3a6.5,6.5,0,0,0,2.2,1.1,7.5,7.5,0,0,0,2.6.4,4.9,4.9,0,0,0,3.2-.9,4.5,4.5,0,0,0,1-3V23a5.9,5.9,0,0,1-1.9,1.3,6.9,6.9,0,0,1-2.5.4,6.6,6.6,0,0,1-3.4-.8,5.4,5.4,0,0,1-2.3-2.2,6,6,0,0,1-.9-3.3,6.3,6.3,0,0,1,.9-3.3,6.1,6.1,0,0,1,2.3-2.2,7.7,7.7,0,0,1,3.4-.8,7.5,7.5,0,0,1,2.6.5,5.2,5.2,0,0,1,1.9,1.4V12.3Zm-4.1,8.8a3.7,3.7,0,0,0,1.1-2.7,3.3,3.3,0,0,0-1.1-2.6,3.9,3.9,0,0,0-2.8-1.1,4,4,0,0,0-2.9,1.1,3.3,3.3,0,0,0-1.1,2.6,3.7,3.7,0,0,0,1.1,2.7,3.9,3.9,0,0,0,2.9,1A3.9,3.9,0,0,0,287.9,21.1Z"/><path d="M306.7,12.3v11c0,4.6-2.2,6.9-6.7,6.9a12.2,12.2,0,0,1-3.4-.4,8.6,8.6,0,0,1-2.7-1.4l1.3-2.3a7,7,0,0,0,2.1,1.1,6.9,6.9,0,0,0,2.5.4,4,4,0,0,0,2.9-.9,4,4,0,0,0,1-3v-.6a5.7,5.7,0,0,1-1.8,1.2,5.9,5.9,0,0,1-2.3.4,5.5,5.5,0,0,1-4.1-1.4A5.8,5.8,0,0,1,294,19V12.3h3.1v6.3a4,4,0,0,0,.7,2.6,3,3,0,0,0,2.3.9,3.6,3.6,0,0,0,2.6-1,4.5,4.5,0,0,0,1-3V12.3Z"/></svg>