<svg xmlns="http://www.w3.org/2000/svg" width="421.5" height="81.3" viewBox="0 0 421.5 81.3"><rect width="100" height="81.27" fill="#ff2f00"/><path d="M52.8,15.2c4.6,4.6,6.9,11.3,6.9,20V58.1H51.2V52.3H16.6V73.1H8.2V35.2c0-8.7,2.3-15.4,6.9-20s10.9-7,18.8-7S48.2,10.5,52.8,15.2ZM51.2,44.8V34.4c0-6.1-1.6-10.7-4.6-13.9s-7.3-4.7-12.7-4.7-9.7,1.6-12.7,4.7-4.6,7.8-4.6,13.9V44.8Z" fill="#fff"/><path d="M92.1,69.9a12,12,0,0,1-4.5,2.3,16.5,16.5,0,0,1-5.4.9c-4.6,0-8.1-1.3-10.7-3.7s-3.7-6-3.7-10.5V15.8H76V27.2H89V34H76V58.5a8.1,8.1,0,0,0,1.8,5.7,7,7,0,0,0,5.3,1.9A10.1,10.1,0,0,0,89.5,64Z" fill="#fff"/><circle cx="55.4" cy="68.8" r="4.3" fill="#fff"/><path d="M126.4,25.2a9.3,9.3,0,0,1,4.1,4.2,13.8,13.8,0,0,1,1.5,6.7v15h-5V44.2H113v6.9h-4.9v-15a15.1,15.1,0,0,1,1.4-6.7,9.5,9.5,0,0,1,4.2-4.2,14.2,14.2,0,0,1,12.7,0ZM127,40V35.7a8.1,8.1,0,0,0-1.8-5.7,8.1,8.1,0,0,0-10.4,0,8.1,8.1,0,0,0-1.8,5.7V40Z"/><path d="M154,51.1l-5.5-7.9h-7.2v7.9h-5v-27h11.1a14.1,14.1,0,0,1,6.1,1.2,8.8,8.8,0,0,1,4,3.3,9.3,9.3,0,0,1,1.4,5.1,9.4,9.4,0,0,1-1.5,5.3,9.1,9.1,0,0,1-4.2,3.2l6.2,8.9Zm-1.8-21.4a8,8,0,0,0-5-1.3h-5.9V39.1h5.9a8,8,0,0,0,5-1.4,4.9,4.9,0,0,0,1.6-4A5.1,5.1,0,0,0,152.2,29.7Z"/><path d="M167,49.7a13.2,13.2,0,0,1-7-12.1,14.1,14.1,0,0,1,1.8-7.1,13.9,13.9,0,0,1,5.2-5,15.3,15.3,0,0,1,7.4-1.8,14.6,14.6,0,0,1,6,1.2,13.3,13.3,0,0,1,4.7,3.3l-3.3,3.1a9.3,9.3,0,0,0-7.2-3.2,9.9,9.9,0,0,0-4.9,1.2,10.4,10.4,0,0,0-3.5,3.4,10.2,10.2,0,0,0-1.2,4.9,9.9,9.9,0,0,0,1.2,4.9,9.5,9.5,0,0,0,3.5,3.4,9.9,9.9,0,0,0,4.9,1.2,9.3,9.3,0,0,0,7.2-3.2l3.3,3.1a13.3,13.3,0,0,1-4.7,3.3,14.6,14.6,0,0,1-6,1.2A15,15,0,0,1,167,49.7Z"/><path d="M210.2,24.1v27h-4.8V47.7c-1.9,2.5-4.7,3.8-8.5,3.8a9.6,9.6,0,0,1-7.5-3c-1.8-2-2.8-4.8-2.8-8.5V24.1h5.1V39.8c0,2.4.5,4.2,1.7,5.5a6.1,6.1,0,0,0,4.7,1.8,6.8,6.8,0,0,0,5.1-2,7.8,7.8,0,0,0,2-5.8V24.1Z"/><path d="M214.5,50.5a3.3,3.3,0,0,1-.9-2.3,3.2,3.2,0,0,1,.9-2.4,3.3,3.3,0,0,1,2.2-.8,3.6,3.6,0,0,1,2.3.8,3.2,3.2,0,0,1,.9,2.4,3.3,3.3,0,0,1-.9,2.3,3.2,3.2,0,0,1-2.3.9A3.1,3.1,0,0,1,214.5,50.5Z"/><path d="M233.7,50a6.8,6.8,0,0,1-2.1,1,10.9,10.9,0,0,1-2.6.4,7.1,7.1,0,0,1-5.2-1.8,7,7,0,0,1-1.8-5.2V26h4.8v4.7h5.5v3.8h-5.5v9.8a3.2,3.2,0,0,0,.7,2.3,2.9,2.9,0,0,0,2.1.8,4,4,0,0,0,2.7-.9Z"/><path d="M249.7,45l2.5,3a8.3,8.3,0,0,1-3.5,2.5,11.9,11.9,0,0,1-4.7.9,12.7,12.7,0,0,1-6-1.4,10.2,10.2,0,0,1-4-3.7,11.5,11.5,0,0,1-1.4-5.5,10.9,10.9,0,0,1,1.4-5.4,9.3,9.3,0,0,1,3.8-3.8,10.8,10.8,0,0,1,5.4-1.3,11.8,11.8,0,0,1,5.3,1.2,10.6,10.6,0,0,1,3.7,3.6,11,11,0,0,1,1.4,5.5l-15.8,3.1a5.5,5.5,0,0,0,2.4,2.6,7.1,7.1,0,0,0,3.9,1A7.7,7.7,0,0,0,249.7,45Zm-10.8-9.1a6.3,6.3,0,0,0-1.6,4.6h0l11.6-2.3a5.5,5.5,0,0,0-2-3,5.9,5.9,0,0,0-3.7-1.2A5.5,5.5,0,0,0,238.9,35.9Z"/><path d="M259.6,50a9.6,9.6,0,0,1-4-3.7,10.5,10.5,0,0,1-1.4-5.5,9.9,9.9,0,0,1,1.4-5.4,10.2,10.2,0,0,1,3.9-3.8,12.1,12.1,0,0,1,5.8-1.3,11.2,11.2,0,0,1,5.3,1.2,7.6,7.6,0,0,1,3.5,3.6l-3.7,2.1a7.3,7.3,0,0,0-2.2-2.1,5.9,5.9,0,0,0-2.9-.7,6,6,0,0,0-6.3,6.4,6.3,6.3,0,0,0,1.8,4.7,5.7,5.7,0,0,0,4.5,1.7,5.9,5.9,0,0,0,2.9-.7,7.3,7.3,0,0,0,2.2-2.1l3.7,2.1a8.1,8.1,0,0,1-3.5,3.6,11.2,11.2,0,0,1-5.3,1.3A11.7,11.7,0,0,1,259.6,50Z"/><path d="M293.5,32.6c1.6,1.5,2.3,3.7,2.3,6.7V51.1H291V39.9a5.8,5.8,0,0,0-1.2-4,4.6,4.6,0,0,0-3.7-1.4,5.7,5.7,0,0,0-4.2,1.6,6.5,6.5,0,0,0-1.5,4.6V51.1h-4.8V22.5h4.8V32.9a8.1,8.1,0,0,1,2.9-1.9,10.2,10.2,0,0,1,4-.7A8.4,8.4,0,0,1,293.5,32.6Z"/><path d="M317,32.6c1.6,1.5,2.4,3.7,2.4,6.7V51.1h-4.8V39.9a5.8,5.8,0,0,0-1.3-4,4.4,4.4,0,0,0-3.6-1.4,5.4,5.4,0,0,0-4.2,1.6,6.6,6.6,0,0,0-1.6,4.6V51.1h-4.8V30.5h4.6v2.7a7.3,7.3,0,0,1,3-2.2,10.7,10.7,0,0,1,4.1-.7A8.1,8.1,0,0,1,317,32.6Z"/><path d="M326.5,50a9.9,9.9,0,0,1-3.9-3.7,11.5,11.5,0,0,1-1.4-5.5,10.9,10.9,0,0,1,1.4-5.4,10.2,10.2,0,0,1,3.9-3.8,11.8,11.8,0,0,1,5.6-1.3,11.7,11.7,0,0,1,5.7,1.3,9.5,9.5,0,0,1,3.9,3.8,9.9,9.9,0,0,1,1.4,5.4,10.5,10.5,0,0,1-1.4,5.5,9.3,9.3,0,0,1-3.9,3.7,11.7,11.7,0,0,1-5.7,1.4A11.9,11.9,0,0,1,326.5,50Zm10-4.5a6.4,6.4,0,0,0,1.8-4.7,6.4,6.4,0,0,0-1.8-4.7,6,6,0,0,0-4.4-1.7,6,6,0,0,0-4.3,1.7,6.3,6.3,0,0,0-1.7,4.7,6.3,6.3,0,0,0,1.7,4.7,6,6,0,0,0,4.3,1.7A6,6,0,0,0,336.5,45.5Z"/><path d="M346.8,49.6a6.6,6.6,0,0,1-1.8-4.9V22.5h4.9V44.3c0,2.1.9,3.1,2.8,3.1a3.4,3.4,0,0,0,1.8-.4l.2,3.9a9.3,9.3,0,0,1-2.9.5A6.8,6.8,0,0,1,346.8,49.6Z"/><path d="M359,50a10.6,10.6,0,0,1-3.9-3.7,11.5,11.5,0,0,1-1.4-5.5,10.2,10.2,0,0,1,5.3-9.2,12,12,0,0,1,5.7-1.3,11.3,11.3,0,0,1,5.6,1.3,9.5,9.5,0,0,1,3.9,3.8,9.9,9.9,0,0,1,1.4,5.4,10.5,10.5,0,0,1-1.4,5.5,9.3,9.3,0,0,1-3.9,3.7,11.3,11.3,0,0,1-5.6,1.4A12,12,0,0,1,359,50Zm10.1-4.5a6.8,6.8,0,0,0,1.7-4.7,6.8,6.8,0,0,0-1.7-4.7,6.4,6.4,0,0,0-4.4-1.7,6,6,0,0,0-4.4,1.7,6.8,6.8,0,0,0-1.7,4.7,6.8,6.8,0,0,0,1.7,4.7,6,6,0,0,0,4.4,1.7A6.4,6.4,0,0,0,369.1,45.5Z"/><path d="M398.3,30.5V48q0,10.8-11.1,10.8a21,21,0,0,1-5.6-.7,13,13,0,0,1-4.4-2.2l2.2-3.6a12,12,0,0,0,3.4,1.8,15.2,15.2,0,0,0,4.2.6c2.2,0,3.9-.5,4.9-1.5s1.6-2.6,1.6-4.7V47.4a8.1,8.1,0,0,1-3,2.1,12.3,12.3,0,0,1-3.9.7,11.9,11.9,0,0,1-5.3-1.3,8.9,8.9,0,0,1-3.7-3.5,10.1,10.1,0,0,1-1.4-5.2,9.9,9.9,0,0,1,1.4-5.2,8.9,8.9,0,0,1,3.7-3.5,11.8,11.8,0,0,1,5.3-1.2,10.7,10.7,0,0,1,4.1.7,7.6,7.6,0,0,1,3,2.3V30.5Zm-6.5,13.9a5.3,5.3,0,0,0,1.8-4.2,5.4,5.4,0,0,0-1.8-4.2,6,6,0,0,0-4.4-1.6,6.5,6.5,0,0,0-4.6,1.6,5.7,5.7,0,0,0-1.7,4.2,5.6,5.6,0,0,0,1.7,4.2,6.5,6.5,0,0,0,4.6,1.7A6,6,0,0,0,391.8,44.4Z"/><path d="M421.5,30.5V48c0,7.2-3.5,10.8-10.6,10.8a19,19,0,0,1-5.4-.7,11.9,11.9,0,0,1-4.2-2.2l2.1-3.6a14,14,0,0,0,3.2,1.8,13.4,13.4,0,0,0,4,.6,6.2,6.2,0,0,0,4.6-1.5,6.5,6.5,0,0,0,1.5-4.7v-1a8,8,0,0,1-2.8,2,10.5,10.5,0,0,1-3.6.7,9.2,9.2,0,0,1-6.5-2.3c-1.6-1.5-2.3-3.8-2.3-6.8V30.5h4.8v10a6.3,6.3,0,0,0,1.2,4.1,4.7,4.7,0,0,0,3.6,1.3,5.3,5.3,0,0,0,4.1-1.6,6.1,6.1,0,0,0,1.5-4.5V30.5Z"/></svg>