<svg xmlns="http://www.w3.org/2000/svg" width="312.9" height="81.3" viewBox="0 0 312.9 81.3"><rect width="100" height="81.27" fill="#ff2f00"/><path d="M52.8,15.2c4.6,4.6,6.9,11.3,6.9,20V58.1H51.2V52.3H16.6V73.1H8.2V35.2c0-8.7,2.3-15.4,6.9-20s10.9-7,18.8-7S48.2,10.5,52.8,15.2ZM51.2,44.8V34.4c0-6.1-1.6-10.7-4.6-13.9s-7.3-4.7-12.7-4.7-9.7,1.6-12.7,4.7-4.6,7.8-4.6,13.9V44.8Z" fill="#fff"/><path d="M92.1,69.9a12,12,0,0,1-4.5,2.3,16.5,16.5,0,0,1-5.4.9c-4.6,0-8.1-1.3-10.7-3.7s-3.7-6-3.7-10.5V15.8H76V27.2H89V34H76V58.5a8.1,8.1,0,0,0,1.8,5.7,7,7,0,0,0,5.3,1.9A10.1,10.1,0,0,0,89.5,64Z" fill="#fff"/><circle cx="55.4" cy="68.8" r="4.3" fill="#fff"/><path d="M125.5,30.6a7.5,7.5,0,0,1,2.7,2.6,9.4,9.4,0,0,1,.9,4.3V47h-3.2V42.6H117V47h-3.1V37.5a8.3,8.3,0,0,1,1-4.3,6.5,6.5,0,0,1,2.6-2.6,9.3,9.3,0,0,1,8,0Zm.4,9.3V37.2a5.5,5.5,0,0,0-1.1-3.6,5.1,5.1,0,0,0-6.6,0,5.1,5.1,0,0,0-1.2,3.6v2.7Z" stroke="#fff" stroke-miterlimit="10" stroke-width="0.75"/><path d="M143,47l-3.5-5H135v5h-3.2V29.9h7.1a9.2,9.2,0,0,1,3.8.7,5.3,5.3,0,0,1,2.5,2.1,5.8,5.8,0,0,1,.9,3.3,5.4,5.4,0,0,1-3.6,5.4l3.9,5.6Zm-1.1-13.5a5.1,5.1,0,0,0-3.2-.9H135v6.8h3.7a5.1,5.1,0,0,0,3.2-.9,3,3,0,0,0,1-2.5A3,3,0,0,0,141.9,33.5Z" stroke="#fff" stroke-miterlimit="10" stroke-width="0.75"/><path d="M151.3,46.1A8.9,8.9,0,0,1,148,33.9a8.2,8.2,0,0,1,3.3-3.1,9.1,9.1,0,0,1,4.7-1.1,9.5,9.5,0,0,1,3.8.7,8.6,8.6,0,0,1,2.9,2.1l-2,1.9a6.3,6.3,0,0,0-4.6-2,6.2,6.2,0,0,0-3.1.8,5,5,0,0,0-2.2,2.1,6.8,6.8,0,0,0-.8,3.1,6.2,6.2,0,0,0,.8,3.1,4.7,4.7,0,0,0,2.2,2.2,6.2,6.2,0,0,0,3.1.8,6,6,0,0,0,4.6-2.1l2,2a8.6,8.6,0,0,1-2.9,2.1,10,10,0,0,1-3.9.7A8.7,8.7,0,0,1,151.3,46.1Z" stroke="#fff" stroke-miterlimit="10" stroke-width="0.75"/><path d="M178.6,29.9V47h-3V44.8a6.3,6.3,0,0,1-5.4,2.4,5.8,5.8,0,0,1-4.7-1.9,7.2,7.2,0,0,1-1.8-5.3V29.9h3.2v10a5,5,0,0,0,1.1,3.4,3.8,3.8,0,0,0,3,1.2,4.4,4.4,0,0,0,3.2-1.3,4.6,4.6,0,0,0,1.3-3.7V29.9Z" stroke="#fff" stroke-miterlimit="10" stroke-width="0.75"/><path d="M181.4,46.6a2,2,0,0,1-.6-1.5,2.1,2.1,0,0,1,2-2,1.8,1.8,0,0,1,1.4.6,1.7,1.7,0,0,1,.6,1.4,2,2,0,0,1-.6,1.5,2,2,0,0,1-1.4.6A1.8,1.8,0,0,1,181.4,46.6Z" stroke="#fff" stroke-miterlimit="10" stroke-width="0.75"/><path d="M193.5,46.3a2.6,2.6,0,0,1-1.3.6,4.1,4.1,0,0,1-1.6.3,4.5,4.5,0,0,1-3.3-1.2,4.1,4.1,0,0,1-1.2-3.2V31.1h3v3h3.5v2.4h-3.5v6.2a2,2,0,0,0,.5,1.4,1.6,1.6,0,0,0,1.4.5,2.6,2.6,0,0,0,1.7-.5Z" stroke="#fff" stroke-miterlimit="10" stroke-width="0.75"/><path d="M203.7,43.2l1.6,1.8a5,5,0,0,1-2.2,1.6,8.2,8.2,0,0,1-6.8-.3,6.7,6.7,0,0,1-2.6-2.4,6.4,6.4,0,0,1-.9-3.4,7,7,0,0,1,.9-3.5,5.9,5.9,0,0,1,2.4-2.3,6.8,6.8,0,0,1,3.5-.9,7.3,7.3,0,0,1,3.3.8,5.9,5.9,0,0,1,2.4,2.3,6.3,6.3,0,0,1,.8,3.4l-9.9,2a3.5,3.5,0,0,0,1.5,1.7,4.5,4.5,0,0,0,2.4.6A5.2,5.2,0,0,0,203.7,43.2Zm-6.9-5.9a4.4,4.4,0,0,0-1,3h0l7.4-1.4a3.6,3.6,0,0,0-1.3-1.9,3.9,3.9,0,0,0-5.1.3Z" stroke="#fff" stroke-miterlimit="10" stroke-width="0.75"/><path d="M209.9,46.3a6.5,6.5,0,0,1-3.4-5.8,6.8,6.8,0,0,1,.9-3.5,5.6,5.6,0,0,1,2.5-2.3,7.5,7.5,0,0,1,3.7-.9,7,7,0,0,1,3.3.8,5.2,5.2,0,0,1,2.2,2.2l-2.3,1.4a4.7,4.7,0,0,0-1.4-1.4,4.1,4.1,0,0,0-1.9-.4,3.9,3.9,0,0,0-2.8,1.1,4.1,4.1,0,0,0-1.1,3,3.6,3.6,0,0,0,1.1,2.9,3.6,3.6,0,0,0,2.8,1.1,4.1,4.1,0,0,0,1.9-.4,4.7,4.7,0,0,0,1.4-1.4l2.3,1.4a5.4,5.4,0,0,1-2.2,2.3,7.3,7.3,0,0,1-3.3.8A7.5,7.5,0,0,1,209.9,46.3Z" stroke="#fff" stroke-miterlimit="10" stroke-width="0.75"/><path d="M231.4,35.2a5.8,5.8,0,0,1,1.5,4.3V47h-3V39.9a4,4,0,0,0-.8-2.6,3.4,3.4,0,0,0-2.3-.8,3.5,3.5,0,0,0-2.7,1,4.2,4.2,0,0,0-1,2.9V47h-3V28.9h3v6.6a5,5,0,0,1,1.9-1.3,9.3,9.3,0,0,1,2.5-.4A5.6,5.6,0,0,1,231.4,35.2Z" stroke="#fff" stroke-miterlimit="10" stroke-width="0.75"/><path d="M246.4,35.2a6.2,6.2,0,0,1,1.4,4.3V47h-3V39.9a4,4,0,0,0-.8-2.6,3.4,3.4,0,0,0-2.3-.8,3.6,3.6,0,0,0-2.7,1,4.2,4.2,0,0,0-.9,2.9V47H235V34h2.9v1.6a4.3,4.3,0,0,1,1.9-1.3,7.1,7.1,0,0,1,2.6-.5A5.9,5.9,0,0,1,246.4,35.2Z" stroke="#fff" stroke-miterlimit="10" stroke-width="0.75"/><path d="M252.4,46.3a6.5,6.5,0,0,1-3.4-5.8,6.8,6.8,0,0,1,.9-3.5,5.6,5.6,0,0,1,2.5-2.3,6.8,6.8,0,0,1,3.5-.9,6.9,6.9,0,0,1,3.6.9A5.6,5.6,0,0,1,262,37a6.8,6.8,0,0,1,.9,3.5,6.5,6.5,0,0,1-3.4,5.8,6.9,6.9,0,0,1-3.6.9A6.8,6.8,0,0,1,252.4,46.3Zm6.3-2.9a4,4,0,0,0,1.1-2.9,4.4,4.4,0,0,0-1.1-3,3.9,3.9,0,0,0-2.8-1.1,3.7,3.7,0,0,0-2.7,1.1,4,4,0,0,0-1.1,3,3.6,3.6,0,0,0,1.1,2.9,3.3,3.3,0,0,0,2.7,1.1A3.6,3.6,0,0,0,258.7,43.4Z" stroke="#fff" stroke-miterlimit="10" stroke-width="0.75"/><path d="M265.2,46a4.2,4.2,0,0,1-1.1-3.1v-14h3V42.7a1.7,1.7,0,0,0,1.9,1.9,2,2,0,0,0,1.1-.2v2.4a3.7,3.7,0,0,1-1.8.4A4.2,4.2,0,0,1,265.2,46Z" stroke="#fff" stroke-miterlimit="10" stroke-width="0.75"/><path d="M273,46.3a6.5,6.5,0,0,1-3.4-5.8,6.8,6.8,0,0,1,.9-3.5,5.6,5.6,0,0,1,2.5-2.3,6.8,6.8,0,0,1,3.5-.9,6.9,6.9,0,0,1,3.6.9,5.6,5.6,0,0,1,2.5,2.3,6.8,6.8,0,0,1,.9,3.5,6.5,6.5,0,0,1-3.4,5.8,6.9,6.9,0,0,1-3.6.9A6.8,6.8,0,0,1,273,46.3Zm6.3-2.9a3.6,3.6,0,0,0,1.1-2.9,4,4,0,0,0-1.1-3,3.8,3.8,0,0,0-2.8-1.1,3.7,3.7,0,0,0-2.7,1.1,4,4,0,0,0-1.1,3,3.6,3.6,0,0,0,1.1,2.9,3.3,3.3,0,0,0,2.7,1.1A3.4,3.4,0,0,0,279.3,43.4Z" stroke="#fff" stroke-miterlimit="10" stroke-width="0.75"/><path d="M297.9,34V45c0,4.6-2.4,6.9-7.1,6.9a13.4,13.4,0,0,1-3.5-.5,7.4,7.4,0,0,1-2.8-1.4l1.4-2.3a6.1,6.1,0,0,0,2.1,1.2,8.4,8.4,0,0,0,2.7.4,4,4,0,0,0,3.1-1,3.7,3.7,0,0,0,1-2.9v-.7a5.3,5.3,0,0,1-1.9,1.3,6.4,6.4,0,0,1-2.4.4,7.4,7.4,0,0,1-3.4-.8,6.4,6.4,0,0,1-2.4-2.2,6.2,6.2,0,0,1-.8-3.3,6,6,0,0,1,.8-3.3,5.6,5.6,0,0,1,2.4-2.2,7.4,7.4,0,0,1,3.4-.8,6.6,6.6,0,0,1,2.5.5,5.6,5.6,0,0,1,2,1.4V34Zm-4.1,8.8a3.9,3.9,0,0,0,0-5.4,4.7,4.7,0,0,0-5.8,0,3.9,3.9,0,0,0,0,5.4,4.7,4.7,0,0,0,5.8,0Z" stroke="#fff" stroke-miterlimit="10" stroke-width="0.75"/><path d="M312.6,34V45c0,4.6-2.3,6.9-6.8,6.9a12.7,12.7,0,0,1-3.4-.5,6.9,6.9,0,0,1-2.7-1.4l1.4-2.3a6.7,6.7,0,0,0,2,1.2,10.9,10.9,0,0,0,2.5.4,3.8,3.8,0,0,0,3-1,4,4,0,0,0,.9-2.9v-.7a4.6,4.6,0,0,1-1.8,1.3,5.4,5.4,0,0,1-2.2.4,5.8,5.8,0,0,1-4.1-1.4,5.9,5.9,0,0,1-1.5-4.4V34h3v6.3a4,4,0,0,0,.8,2.6,3.2,3.2,0,0,0,2.3.8,3.5,3.5,0,0,0,2.6-1,4.2,4.2,0,0,0,.9-2.9V34Z" stroke="#fff" stroke-miterlimit="10" stroke-width="0.75"/></svg>